<svg width="35" height="35" viewBox="0 0 35 35" fill="none" xmlns="http://www.w3.org/2000/svg">
<g clip-path="url(#clip0_38_619)">
<path d="M15.1464 17.4562L26.9592 5.64332C28.2458 4.3568 28.2458 2.25154 26.9592 0.964944C25.6727 -0.321648 23.4505 -0.321648 22.2809 0.964944L8.01187 15.117C7.42713 15.7018 7.07617 16.6376 7.07617 17.4562C7.07617 18.3919 7.42706 19.2107 8.01187 19.7954L22.1639 34.0644C22.7487 34.6492 23.6844 35.0001 24.5031 35.0001C25.4388 35.0001 26.2575 34.6493 26.8423 34.0644C28.1289 32.7779 28.1289 30.6726 26.8423 29.386L15.1464 17.4562ZM25.3218 32.31C24.9709 32.6608 24.2692 32.6608 23.9183 32.31L9.64929 18.158C9.41536 17.9241 9.2984 17.6902 9.2984 17.4562C9.2984 17.2223 9.41536 16.9884 9.64929 16.7545L23.9183 2.60242C24.0352 2.3685 24.2691 2.2516 24.6201 2.2516C24.971 2.2516 25.0879 2.36857 25.3218 2.60242C25.6727 2.95324 25.6727 3.65502 25.3218 4.00591L12.5733 16.6375C12.3394 16.8714 12.2224 17.1053 12.2224 17.4562C12.2224 17.807 12.3394 18.041 12.5733 18.2749L25.2049 30.9065C25.6727 31.3743 25.6727 31.9592 25.3218 32.31Z" fill="#EF3D3D"/>
</g>
<defs>
<clipPath id="clip0_38_619">
<rect width="35" height="35" fill="white"/>
</clipPath>
</defs>
</svg>
