<svg width="35" height="35" viewBox="0 0 35 35" fill="none" xmlns="http://www.w3.org/2000/svg">
<g clip-path="url(#clip0_38_615)">
<path d="M26.9884 15.2342L12.7194 0.965188C11.4329 -0.321404 9.21069 -0.321404 8.04106 0.965188C6.75454 2.25178 6.75454 4.35698 8.04106 5.64357L19.854 17.5734L8.04113 29.3862C6.75461 30.6728 6.75461 32.7781 8.04113 34.0646C8.62595 34.6494 9.56158 35.0002 10.3803 35.0002C11.1989 35.0002 12.1347 34.6494 12.7194 34.0645L26.9884 19.9125C27.5733 19.3277 27.9241 18.392 27.9241 17.5733C27.9241 16.7546 27.5733 15.819 26.9884 15.2342ZM25.351 18.2751L11.199 32.4272C10.8481 32.778 10.1464 32.778 9.79551 32.4272C9.44462 32.0764 9.44462 31.3745 9.79551 31.0237L22.4271 18.3921C22.8949 17.9243 22.8949 17.2226 22.4271 16.7547L9.67854 4.12312C9.32766 3.65527 9.32766 3.07045 9.67854 2.71963C9.91247 2.48571 10.1464 2.36881 10.3803 2.36881C10.6142 2.36881 10.8482 2.48571 11.0821 2.71963L25.3511 16.9886C25.585 17.2226 25.7019 17.4565 25.7019 17.6904C25.585 17.8072 25.468 18.1582 25.351 18.2751Z" fill="#EF3D3D"/>
</g>
<defs>
<clipPath id="clip0_38_615">
<rect width="35" height="35" fill="white"/>
</clipPath>
</defs>
</svg>
