<svg width="52" height="52" viewBox="0 0 52 52" fill="none" xmlns="http://www.w3.org/2000/svg">
<path d="M36.5676 50.1816C36.5286 50.1816 36.4897 50.1804 36.4508 50.178C35.7728 50.1356 35.1253 49.7337 34.4712 48.9494C34.2109 48.636 33.9575 48.3139 33.7126 48.0023C33.2282 47.3866 32.7707 46.8051 32.2545 46.2693C31.2102 45.1871 29.8736 44.4896 28.1685 44.1372C25.2915 43.5414 23.2665 41.6801 22.4125 38.8687C22.1946 38.9298 21.9856 38.9901 21.7817 39.0578C20.5813 39.4595 18.9869 39.8476 17.3091 39.2764C15.6938 38.725 14.4182 37.7919 13.5145 36.5014C13.4213 36.5482 13.3276 36.5969 13.2303 36.6476C12.9064 36.8162 12.5716 36.9905 12.2035 37.1162C10.413 37.7265 8.53229 37.0641 7.51205 35.4674C7.50269 35.4669 7.49115 35.4674 7.4781 35.4675C7.33714 35.4694 7.19532 35.474 7.05322 35.4788C6.54948 35.4957 6.02882 35.513 5.50626 35.4096C3.52667 35.0186 2.20568 33.0191 2.56202 30.9524C2.60334 30.7139 2.67009 30.4943 2.73466 30.282C2.78241 30.125 2.8276 29.9764 2.85852 29.8327C2.18857 29.1716 1.81143 28.2087 1.81871 27.1674C1.82684 26.0032 2.30959 24.9146 3.14338 24.1806C3.5019 23.8644 3.86751 23.5795 4.25448 23.2778C4.27405 23.2626 4.29362 23.2474 4.31319 23.2321C3.37975 22.0022 3.2263 20.6202 3.8746 19.2023C4.63654 17.5387 6.13026 17.0477 7.336 16.8663C7.3413 16.8374 7.34669 16.8083 7.35207 16.7789C7.41882 16.4145 7.48775 16.0376 7.6324 15.6706C8.45438 13.5863 10.1044 12.7275 12.5372 13.1181C12.6582 13.1378 12.7895 13.159 12.8801 13.1692C12.9192 13.0857 12.9702 12.9607 13.017 12.846C13.8175 10.8879 15.2784 9.91867 17.1302 10.1166C18.0407 10.2138 18.825 10.4405 19.5124 10.8061C19.6886 10.6033 19.8702 10.3949 20.0561 10.1921C21.2679 8.86713 22.7708 8.50484 24.4018 9.14425C24.7815 9.29297 25.1002 9.542 25.3814 9.76163L25.4696 9.83036C25.6324 9.958 25.763 10.094 25.8892 10.2253C25.971 10.3105 26.0483 10.3909 26.1254 10.4591C26.2973 10.6112 26.3812 10.6696 26.4207 10.692C26.514 10.6534 26.7162 10.5177 26.8077 10.4563C27.2839 10.1362 27.8569 9.78791 28.4949 9.6321C29.6352 9.35329 30.708 9.60676 31.6833 10.3857C31.9281 10.5812 31.968 10.9382 31.7725 11.183C31.577 11.4277 31.2201 11.4679 30.9752 11.2722C30.2698 10.7089 29.5675 10.5378 28.7641 10.7342C28.2988 10.8479 27.8338 11.1336 27.4402 11.398C26.6012 11.9612 26.185 12.0269 25.3734 11.3087C25.262 11.2101 25.1649 11.109 25.071 11.0112C24.9674 10.9034 24.8696 10.8015 24.7719 10.725L24.6828 10.6556C24.4415 10.4669 24.2136 10.2889 23.9879 10.2005C22.7982 9.73402 21.7859 9.98201 20.8929 10.9583C20.7043 11.1638 20.516 11.3807 20.3338 11.5904C20.2415 11.6968 20.1491 11.8031 20.0559 11.9092C19.869 12.1216 19.5545 12.1639 19.3182 12.0084C18.6779 11.5872 17.9443 11.3445 17.0097 11.2445C15.6662 11.1007 14.6767 11.784 14.0674 13.2748C13.6635 14.2644 13.4076 14.4085 12.3565 14.2381C10.4447 13.9311 9.31304 14.5011 8.68781 16.0866C8.58381 16.3506 8.52756 16.6578 8.46799 16.983C8.43727 17.151 8.40541 17.3247 8.36551 17.5021C8.31218 17.739 8.11383 17.9156 7.87236 17.9414C6.27123 18.1124 5.38421 18.6307 4.90618 19.6743C4.36794 20.8515 4.57442 21.9135 5.53775 22.9207C5.6478 23.0357 5.70443 23.1917 5.69384 23.3506C5.68325 23.5094 5.60639 23.6564 5.48197 23.7559C5.30384 23.8982 5.12685 24.0362 4.95185 24.1726C4.57877 24.4634 4.22631 24.738 3.89332 25.0317C3.30156 25.5527 2.95902 26.3338 2.95316 27.1751C2.94777 27.9433 3.22611 28.6388 3.7168 29.0831C4.02039 29.3566 4.02095 29.8162 3.9733 30.0446C3.93208 30.2437 3.87516 30.431 3.82014 30.6119C3.76313 30.7994 3.70933 30.9765 3.68012 31.1454C3.43194 32.5852 4.36898 34.0283 5.72655 34.2965C6.12147 34.3748 6.55572 34.3602 7.01549 34.3449C7.16554 34.3398 7.3153 34.3349 7.46402 34.333C7.6809 34.3296 8.1317 34.3244 8.45362 34.833C9.18503 35.9978 10.5443 36.4832 11.8375 36.0423C12.1243 35.9445 12.4072 35.7971 12.7068 35.6412C12.8529 35.5652 13.0039 35.4865 13.1583 35.4125C13.7827 35.1113 14.1527 35.4117 14.353 35.7164C15.1192 36.8746 16.2375 37.7115 17.6757 38.2024C18.7335 38.5628 19.8895 38.4947 21.4233 37.9815C21.7057 37.8877 21.9815 37.8109 22.2734 37.7297C22.3983 37.695 22.525 37.6598 22.6539 37.6226C22.8028 37.5796 22.9629 37.5995 23.097 37.6778C23.231 37.756 23.327 37.8856 23.363 38.0365C23.9993 40.7134 25.7878 42.4854 28.3989 43.0261C30.3078 43.4206 31.8801 44.2467 33.0718 45.4818C33.6279 46.0589 34.1245 46.6901 34.6049 47.3008C34.8453 47.6065 35.094 47.9225 35.3439 48.2236C35.7805 48.7471 36.1772 49.024 36.5223 49.0455C36.8092 49.0631 37.1197 48.912 37.4729 48.5827C37.5144 48.5436 37.5586 48.5058 37.6029 48.4683C37.6252 48.4493 37.6477 48.4304 37.6694 48.411C38.1505 47.9852 38.2621 47.5154 38.0325 46.8865C37.8584 46.4086 37.6875 45.9304 37.5164 45.4523C37.2319 44.6566 36.9377 43.8338 36.6359 43.0315C36.3396 42.2467 36.2752 41.3897 36.4332 40.335C36.5128 39.8131 36.8487 39.5163 37.3791 39.4976C38.4524 39.4602 39.5619 39.4215 40.6657 39.324C41.8678 39.2161 42.788 38.6998 43.4783 37.7455C44.2438 36.6868 44.4118 35.5064 43.9922 34.1373C43.9116 33.8724 43.8472 33.6095 43.7849 33.3552C43.7548 33.2322 43.7248 33.1102 43.6936 32.9901C43.6551 32.8423 43.6779 32.6851 43.7567 32.5544C43.8356 32.4236 43.9639 32.33 44.1126 32.295C44.2496 32.2628 44.3793 32.2354 44.5034 32.2091C44.7418 32.1587 44.9474 32.1152 45.1329 32.0515C46.59 31.5553 47.3611 30.2481 47.0534 28.7984C46.9203 28.1736 46.5486 27.6108 45.8483 26.9739C45.2818 26.4582 45.2188 25.8985 45.6555 25.2625C46.462 24.0886 46.0073 22.6438 45.2433 21.7982C44.6674 21.1599 43.9733 20.8611 43.1284 20.8862C42.9751 20.8896 42.8267 20.8329 42.7167 20.7261C42.6068 20.6193 42.5447 20.4725 42.5447 20.3192V20.3086C42.5447 19.9954 42.7988 19.7414 43.112 19.7414C43.1465 19.7414 43.1804 19.7445 43.2132 19.7504H43.2247C44.3522 19.7504 45.3141 20.1831 46.0854 21.038C47.1384 22.2034 47.7458 24.2238 46.5907 25.905C46.5476 25.9678 46.5258 26.009 46.5151 26.0331C46.5305 26.0535 46.5594 26.087 46.6119 26.1347C47.2088 26.6777 47.925 27.4446 48.1631 28.5624C48.5893 30.5698 47.4942 32.4458 45.5001 33.125C45.313 33.1893 45.1266 33.2349 44.9342 33.2772C44.9785 33.4552 45.0251 33.6344 45.0774 33.8061C45.6007 35.5133 45.3721 37.0627 44.3978 38.4105C43.516 39.6297 42.2943 40.3172 40.7666 40.4542C39.6732 40.5508 38.5888 40.5907 37.5379 40.6274C37.4302 41.4329 37.4804 42.0555 37.6978 42.6315C38.0031 43.4431 38.2989 44.2703 38.5851 45.0703C38.7553 45.5464 38.9256 46.0226 39.0986 46.498C39.4892 47.5676 39.2556 48.5227 38.423 49.2595C38.3958 49.2838 38.3667 49.3086 38.3376 49.3333C38.3075 49.3589 38.2771 49.3842 38.2481 49.4114C37.6984 49.9232 37.1344 50.1816 36.5676 50.1816ZM2.95429 29.9234C2.95495 29.924 2.95562 29.9246 2.95618 29.9251C2.95552 29.9246 2.95486 29.924 2.95429 29.9234Z" fill="black"/>
<path d="M29.0328 21.3627C28.786 21.3627 28.5588 21.2003 28.4876 20.9512C28.4711 20.8932 28.0837 19.5129 28.205 17.8329C28.3706 15.5413 29.4033 13.8 31.1912 12.7969C31.4649 12.6435 31.8103 12.7409 31.9636 13.0141C32.1168 13.2873 32.0195 13.6331 31.7463 13.7863C28.2311 15.7581 29.5647 20.5908 29.5786 20.6394C29.6646 20.9407 29.4901 21.2546 29.1889 21.3406C29.1369 21.3556 29.0845 21.3627 29.0328 21.3627Z" fill="black"/>
<path d="M14.8931 26.2593C13.8123 26.2593 12.7596 25.7533 11.7554 24.7491C11.5339 24.5276 11.5339 24.1684 11.7554 23.9469C11.9769 23.7253 12.3361 23.7253 12.5576 23.9469C13.4954 24.8846 14.4045 25.2562 15.3373 25.0832C17.3819 24.7035 19.131 21.6927 19.6322 20.5646C19.7595 20.2783 20.0945 20.1492 20.381 20.2766C20.6673 20.4039 20.7963 20.7391 20.669 21.0254C20.5855 21.2133 18.5889 25.6334 15.5444 26.1987C15.3264 26.2391 15.1092 26.2593 14.8931 26.2593Z" fill="black"/>
<path d="M25.4797 18.6976C25.2147 18.6976 24.9779 18.5111 24.924 18.2415C24.7369 17.3063 24.3342 16.6989 23.6928 16.3842C22.0915 15.599 19.5413 16.8487 19.5156 16.8614C19.2352 17.0009 18.8949 16.8869 18.7551 16.6067C18.6154 16.3266 18.7288 15.9863 19.0089 15.8464C19.1333 15.7841 22.0822 14.3337 24.1892 15.3641C25.1574 15.8376 25.7789 16.7309 26.0365 18.019C26.098 18.3263 25.8988 18.6251 25.5915 18.6865C25.554 18.694 25.5165 18.6976 25.4797 18.6976Z" fill="black"/>
<path d="M29.922 33.7979C29.8851 33.7979 29.8477 33.7943 29.8101 33.7868C29.5029 33.7254 29.3037 33.4264 29.3651 33.1193C29.5287 32.301 29.3897 31.6361 28.9401 31.0869C27.5437 29.3813 23.7415 29.3566 23.7033 29.3565C23.3902 29.3562 23.1364 29.1021 23.1366 28.7889C23.1368 28.4757 23.3905 28.222 23.7037 28.222C23.8815 28.222 28.0786 28.2464 29.8165 30.3664C30.4867 31.1838 30.709 32.1849 30.4777 33.3418C30.4238 33.6115 30.1869 33.7979 29.922 33.7979Z" fill="black"/>
<path d="M37.0271 37.3508C36.9419 37.3508 36.8553 37.3315 36.7738 37.2908C35.8509 36.8294 35.2573 36.122 35.0093 35.1882C34.351 32.7094 36.4652 29.4983 36.5555 29.3629C36.7292 29.1022 37.0814 29.0318 37.3421 29.2056C37.6028 29.3793 37.6732 29.7314 37.4995 29.992C37.4737 30.0311 35.5789 32.9188 36.1062 34.8986C36.2696 35.5118 36.6538 35.9624 37.2812 36.276C37.5614 36.4161 37.675 36.7569 37.5349 37.0371C37.4355 37.236 37.2352 37.3508 37.0271 37.3508Z" fill="black"/>
<path d="M13.9323 33.7979C13.6674 33.7979 13.4306 33.6115 13.3767 33.3418C13.0811 31.8638 12.5398 30.8528 11.8114 30.418C11.1704 30.0354 10.5779 30.2101 10.5529 30.2178C10.2557 30.3168 9.93759 30.1552 9.83851 29.8579C9.73942 29.5607 9.90327 29.2384 10.2004 29.1393C10.2437 29.1251 11.2726 28.7935 12.3612 29.4252C13.4039 30.0303 14.1198 31.2732 14.489 33.1192C14.5505 33.4264 14.3513 33.7252 14.044 33.7868C14.0066 33.7942 13.9692 33.7979 13.9323 33.7979Z" fill="black"/>
<path d="M40.4578 21.2662C35.096 21.2662 30.7339 16.9041 30.7339 11.5423C30.7339 6.18053 35.096 1.81839 40.4578 1.81839C45.8196 1.81839 50.1817 6.18053 50.1817 11.5423C50.1817 16.9041 45.8196 21.2662 40.4578 21.2662ZM40.4578 2.95294C35.7216 2.95294 31.8684 6.80604 31.8684 11.5423C31.8684 16.2786 35.7216 20.1317 40.4578 20.1317C45.194 20.1317 49.0472 16.2786 49.0472 11.5423C49.0472 6.80604 45.194 2.95294 40.4578 2.95294Z" fill="black"/>
<path d="M45.759 14.5192H35.1566C34.8434 14.5192 34.5894 14.2651 34.5894 13.9519C34.5894 13.6387 34.8434 13.3846 35.1566 13.3846H45.7591C46.0723 13.3846 46.3263 13.6387 46.3263 13.9519C46.3263 14.2651 46.0723 14.5192 45.759 14.5192Z" fill="black"/>
<path d="M39.012 16.4469C38.6987 16.4469 38.4447 16.1929 38.4447 15.8797V12.0243C38.4447 11.7111 38.6987 11.457 39.012 11.457C39.3252 11.457 39.5792 11.7111 39.5792 12.0243V15.8797C39.5792 16.1929 39.3252 16.4469 39.012 16.4469Z" fill="black"/>
<path d="M45.759 9.69988H35.1566C34.8434 9.69988 34.5894 9.44584 34.5894 9.13261C34.5894 8.81938 34.8434 8.56534 35.1566 8.56534H45.7591C46.0723 8.56534 46.3263 8.81938 46.3263 9.13261C46.3263 9.44584 46.0723 9.69988 45.759 9.69988Z" fill="black"/>
<path d="M42.8673 11.6276C42.5541 11.6276 42.3 11.3735 42.3 11.0603V7.20492C42.3 6.89169 42.5541 6.63765 42.8673 6.63765C43.1806 6.63765 43.4346 6.89169 43.4346 7.20492V11.0603C43.4346 11.3736 43.1806 11.6276 42.8673 11.6276Z" fill="black"/>
</svg>
