<svg width="25" height="25" viewBox="0 0 25 25" fill="none" xmlns="http://www.w3.org/2000/svg">
<g clip-path="url(#clip0_21_73)">
<path d="M22.5348 0.000732422H2.46503C1.10425 0.00310584 0.00151822 1.727 0 3.85429V21.1457C0.00151822 23.273 1.10425 24.9969 2.46503 24.9993H22.5348C23.8956 24.997 24.9985 23.2731 25 21.1457V3.85429C24.9985 1.727 23.8956 0.00310584 22.5348 0.000732422ZM16.8433 12.5L23.9515 3.14061C23.9992 3.37114 24.0235 3.61197 24.0234 3.85421V21.1457C24.0235 21.3879 23.9992 21.6287 23.9516 21.8593L16.8433 12.5ZM22.5348 1.52739C22.8295 1.52692 23.1175 1.66387 23.362 1.92075L12.5 16.223L1.63796 1.92075C1.88249 1.66387 2.1705 1.52692 2.46508 1.52747L22.5348 1.52739ZM1.04853 21.8596C1.00081 21.629 0.976569 21.3882 0.976619 21.1458V3.85429C0.976569 3.61205 1.00086 3.37114 1.04853 3.14061L8.15663 12.5L1.04853 21.8596ZM2.46503 23.4727C2.1705 23.4734 1.88249 23.3365 1.63796 23.0798L8.91457 13.4984L12.1854 17.8051C12.3672 18.0444 12.6328 18.0444 12.8145 17.8051L16.0854 13.4984L23.3619 23.0793C23.1174 23.3362 22.8294 23.4732 22.5348 23.4726H2.46503V23.4727Z" fill="black"/>
</g>
<defs>
<clipPath id="clip0_21_73">
<rect width="25" height="25" fill="white"/>
</clipPath>
</defs>
</svg>
