<svg width="24" height="24" viewBox="0 0 24 24" fill="none" xmlns="http://www.w3.org/2000/svg">
<g clip-path="url(#clip0_69_81)">
<path d="M21.7053 0.000732422H2.41952C1.1119 0.0030109 0.0522402 1.65795 0.0507812 3.70015V20.2999C0.0522402 22.3421 1.1119 23.9971 2.41952 23.9994H21.7053C23.013 23.9972 24.0728 22.3422 24.0742 20.2999V3.70015C24.0728 1.65795 23.013 0.0030109 21.7053 0.000732422ZM16.2362 12L23.0667 3.01501C23.1126 3.23633 23.1358 3.46752 23.1358 3.70007V20.2999C23.1358 20.5324 23.1126 20.7636 23.0667 20.9849L16.2362 12ZM21.7053 1.46633C21.9885 1.46587 22.2652 1.59734 22.5002 1.84395L12.0625 15.5741L1.62475 1.84395C1.85974 1.59734 2.13649 1.46587 2.41957 1.4664L21.7053 1.46633ZM1.05836 20.9852C1.0125 20.7638 0.989203 20.5327 0.989251 20.3V3.70015C0.989203 3.46759 1.01255 3.23633 1.05836 3.01501L7.88879 12L1.05836 20.9852ZM2.41952 22.5338C2.13649 22.5345 1.85974 22.4031 1.62475 22.1566L8.61713 12.9585L11.7602 17.0929C11.9348 17.3227 12.1901 17.3227 12.3647 17.0929L15.5078 12.9585L22.5001 22.1561C22.2652 22.4028 21.9884 22.5343 21.7053 22.5338H2.41952V22.5338Z" fill="#FFCE03"/>
</g>
<defs>
<clipPath id="clip0_69_81">
<rect width="24" height="24" fill="white"/>
</clipPath>
</defs>
</svg>
