<svg width="26" height="26" viewBox="0 0 26 26" fill="none" xmlns="http://www.w3.org/2000/svg">
<path d="M7.68182 0C3.44647 0 0 3.44647 0 7.68182V18.3182C0 22.5535 3.44647 26 7.68182 26H18.3182C22.5535 26 26 22.5535 26 18.3182V7.68182C26 3.44647 22.5535 0 18.3182 0H7.68182ZM7.68182 1.18182H18.3182C21.9147 1.18182 24.8182 4.08526 24.8182 7.68182V18.3182C24.8182 21.9147 21.9147 24.8182 18.3182 24.8182H7.68182C4.08526 24.8182 1.18182 21.9147 1.18182 18.3182V7.68182C1.18182 4.08526 4.08526 1.18182 7.68182 1.18182ZM20.0909 4.72727C19.4382 4.72727 18.9091 5.25639 18.9091 5.90909C18.9091 6.56179 19.4382 7.09091 20.0909 7.09091C20.7436 7.09091 21.2727 6.56179 21.2727 5.90909C21.2727 5.25639 20.7436 4.72727 20.0909 4.72727ZM13 6.5C9.41715 6.5 6.5 9.41715 6.5 13C6.5 16.5829 9.41715 19.5 13 19.5C16.5829 19.5 19.5 16.5829 19.5 13C19.5 9.41715 16.5829 6.5 13 6.5ZM13 7.68182C15.9442 7.68182 18.3182 10.0558 18.3182 13C18.3182 15.9442 15.9442 18.3182 13 18.3182C10.0558 18.3182 7.68182 15.9442 7.68182 13C7.68182 10.0558 10.0558 7.68182 13 7.68182Z" fill="#FFCE03"/>
</svg>
