<svg width="25" height="25" viewBox="0 0 25 25" fill="none" xmlns="http://www.w3.org/2000/svg">
<path d="M7.38636 0C3.31391 0 0 3.31391 0 7.38636V17.6136C0 21.6861 3.31391 25 7.38636 25H17.6136C21.6861 25 25 21.6861 25 17.6136V7.38636C25 3.31391 21.6861 0 17.6136 0H7.38636ZM7.38636 1.13636H17.6136C21.0719 1.13636 23.8636 3.92814 23.8636 7.38636V17.6136C23.8636 21.0719 21.0719 23.8636 17.6136 23.8636H7.38636C3.92814 23.8636 1.13636 21.0719 1.13636 17.6136V7.38636C1.13636 3.92814 3.92814 1.13636 7.38636 1.13636ZM19.3182 4.54545C18.6906 4.54545 18.1818 5.05422 18.1818 5.68182C18.1818 6.30941 18.6906 6.81818 19.3182 6.81818C19.9458 6.81818 20.4545 6.30941 20.4545 5.68182C20.4545 5.05422 19.9458 4.54545 19.3182 4.54545ZM12.5 6.25C9.05495 6.25 6.25 9.05495 6.25 12.5C6.25 15.9451 9.05495 18.75 12.5 18.75C15.9451 18.75 18.75 15.9451 18.75 12.5C18.75 9.05495 15.9451 6.25 12.5 6.25ZM12.5 7.38636C15.3309 7.38636 17.6136 9.66909 17.6136 12.5C17.6136 15.3309 15.3309 17.6136 12.5 17.6136C9.66909 17.6136 7.38636 15.3309 7.38636 12.5C7.38636 9.66909 9.66909 7.38636 12.5 7.38636Z" fill="black"/>
</svg>
