<svg width="25" height="25" viewBox="0 0 25 25" fill="none" xmlns="http://www.w3.org/2000/svg">
<path d="M4.67094 1.15294C4.28039 1.16475 3.93729 1.37085 3.65013 1.65801L2.06703 3.23807C2.02932 3.27408 1.99918 3.31726 1.97839 3.36508C1.9576 3.4129 1.94657 3.46441 1.94595 3.51656C1.94533 3.5687 1.95514 3.62041 1.97479 3.66871C1.99445 3.71701 2.02355 3.7609 2.0604 3.79779C2.09725 3.83469 2.1411 3.86386 2.18937 3.88358C2.23764 3.9033 2.28937 3.91319 2.34152 3.91264C2.39366 3.91209 2.44517 3.90115 2.49302 3.88043C2.54087 3.8597 2.58409 3.8296 2.62016 3.79194L3.1649 3.24721L6.36009 6.52249C6.72297 6.9173 7.30527 6.35007 6.92009 5.977L3.71727 2.69483L4.20097 2.21111C4.40143 2.01065 4.56295 1.93894 4.69383 1.93492C4.82479 1.93049 4.98275 1.98424 5.20958 2.21111L8.56651 5.56501C8.72431 5.72281 8.72431 5.95807 8.56651 6.11586L6.75529 7.92633C6.29686 8.38476 6.14354 8.91628 6.19606 9.36298C6.24862 9.80967 6.46811 10.1583 6.65153 10.3952C7.36055 11.311 8.46088 12.9195 10.2702 14.7287C12.0794 16.538 13.6886 17.6391 14.6044 18.3481C14.8413 18.5315 15.19 18.7511 15.6367 18.8036C16.0834 18.8562 16.6141 18.7028 17.0725 18.2443L17.6142 17.7042L20.8155 20.9749C21.177 21.407 21.7968 20.7999 21.3725 20.4294L18.1651 17.1534L18.8837 16.4362C19.0416 16.2784 19.2768 16.2784 19.4346 16.4362L22.7877 19.7893C23.0145 20.0162 23.0687 20.1749 23.0647 20.3058C23.0602 20.4368 22.9882 20.5982 22.7877 20.7987L21.2077 22.3787C20.5484 23.038 19.6822 23.0448 19.1401 23.0448C17.0932 23.0448 13.4521 22.2763 8.08738 16.9115C2.72263 11.5467 1.95411 7.90644 1.95411 5.85954C1.95411 5.66418 1.95294 5.42399 1.98614 5.16676C1.99699 5.11403 1.99682 5.05966 1.98564 5.007C1.97446 4.95433 1.95252 4.90453 1.9212 4.86075C1.88987 4.81696 1.84983 4.78014 1.80359 4.75257C1.75735 4.72499 1.70591 4.70724 1.6525 4.70048C1.59909 4.69373 1.54486 4.69813 1.49321 4.71332C1.44157 4.72852 1.39362 4.75419 1.35238 4.78879C1.31114 4.8234 1.27749 4.86618 1.25356 4.91441C1.22962 4.96263 1.21591 5.01527 1.21329 5.06904C1.17284 5.38453 1.17285 5.66255 1.17285 5.85868C1.17285 8.10815 2.07289 11.9979 7.53729 17.4623C13.0017 22.9267 16.8906 23.8267 19.1401 23.8267C19.6837 23.8267 20.8615 23.8326 21.7615 22.9326L23.3416 21.3525C23.6287 21.0654 23.8347 20.7192 23.8467 20.3287C23.8585 19.9381 23.6664 19.561 23.3416 19.2361L19.9885 15.8822C19.5342 15.4279 18.7841 15.4279 18.3298 15.8822L16.5224 17.6935C16.1996 18.0163 15.9576 18.0549 15.7259 18.0276C15.4943 18.0005 15.2587 17.8664 15.0835 17.7308C14.1287 16.9916 12.5818 15.9333 10.824 14.1755C9.06622 12.4177 8.00802 10.8709 7.26874 9.91599C7.13321 9.74088 6.9992 9.50451 6.97196 9.27287C6.94465 9.04122 6.98657 8.79992 7.30918 8.47709L9.11734 6.66969C9.57162 6.21542 9.57161 5.46534 9.11734 5.01105L5.76346 1.65792C5.43861 1.33306 5.06147 1.14093 4.67094 1.15294Z" fill="black"/>
</svg>
