<svg width="26" height="26" viewBox="0 0 26 26" fill="none" xmlns="http://www.w3.org/2000/svg">
<path d="M23.076 3.11284C22.8228 3.12396 22.5762 3.19444 22.3539 3.28347C22.1339 3.3719 20.867 3.91261 18.9963 4.71246C17.1255 5.5123 14.6936 6.55387 12.283 7.58667C7.46169 9.6523 2.72393 11.6847 2.72393 11.6847L2.75846 11.6715C2.75846 11.6715 2.47252 11.7671 2.1826 11.9691C2.03765 12.0701 1.8817 12.2005 1.75401 12.3906C1.62632 12.5807 1.53297 12.8501 1.56815 13.135C1.69171 14.1359 2.72901 14.4198 2.72901 14.4198L2.73307 14.4218L7.36229 16.0062C7.48031 16.3999 8.76635 20.6923 9.04924 21.6013C9.20547 22.1039 9.35171 22.3938 9.50424 22.5915C9.58057 22.6905 9.66056 22.7671 9.749 22.8231C9.78415 22.8453 9.8211 22.862 9.85767 22.8769C9.85845 22.8773 9.85893 22.8766 9.85971 22.8769C9.8642 22.8789 9.86843 22.8791 9.87291 22.881L9.86072 22.8779C9.86922 22.8814 9.87761 22.8871 9.88611 22.8901C9.90262 22.8959 9.91273 22.8957 9.93385 22.9003C10.464 23.0854 10.9028 22.7418 10.9028 22.7418L10.921 22.7276L13.7648 20.09L18.3798 23.6884L18.4377 23.7148C19.2455 24.0735 19.976 23.8734 20.3806 23.5442C20.7851 23.215 20.9442 22.7906 20.9442 22.7906L20.9615 22.7459L24.3527 5.07098C24.4394 4.67555 24.4518 4.33375 24.3699 4.02489C24.2881 3.71602 24.0893 3.44753 23.8398 3.29872C23.5903 3.1499 23.3293 3.10173 23.076 3.11284ZM23.1035 4.17011C23.2063 4.16534 23.2826 4.1771 23.3066 4.19144C23.3306 4.20577 23.3414 4.20389 23.3645 4.29097C23.3875 4.37805 23.4 4.56148 23.3371 4.84855L23.335 4.85465L19.9632 22.427C19.9552 22.4447 19.8849 22.6072 19.7245 22.7378C19.5608 22.8709 19.3788 22.9749 18.8957 22.7723L13.8491 18.8368L13.7069 18.725L13.7039 18.7281L12.1946 17.5957L20.6761 7.61716C20.8093 7.46092 20.838 7.24099 20.7496 7.05576C20.6612 6.87053 20.472 6.75465 20.2668 6.75997C20.1687 6.76252 20.0733 6.7928 19.9916 6.84732L7.71878 15.0292L3.08245 13.4418C3.08245 13.4418 2.62206 13.1856 2.60003 13.0071C2.59881 12.9972 2.59337 13.0062 2.61729 12.9705C2.64122 12.9349 2.70135 12.8748 2.77675 12.8222C2.92754 12.7172 3.09971 12.6536 3.09971 12.6536L3.11698 12.6476L3.13424 12.6404C3.13424 12.6404 7.87225 10.6079 12.6933 8.5424C15.1038 7.50964 17.5353 6.46884 19.4056 5.66919C21.2754 4.86976 22.6265 4.29432 22.7409 4.24834C22.8711 4.19618 23.0006 4.17487 23.1035 4.17011ZM17.4789 9.7723L11.047 17.3397L11.0439 17.3428C11.0339 17.3549 11.0244 17.3674 11.0155 17.3803C11.0053 17.3944 10.9958 17.409 10.9871 17.424C10.9509 17.4853 10.9278 17.5534 10.919 17.6241C10.919 17.6254 10.919 17.6268 10.919 17.6282L10.0811 21.3961C10.0672 21.3554 10.0574 21.3405 10.0425 21.2925V21.2915C9.77639 20.4364 8.56305 16.3883 8.39517 15.8285L17.4789 9.7723ZM11.7732 18.5798L12.9289 19.4471L11.2308 21.0214L11.7732 18.5798Z" fill="#FFCE03"/>
</svg>
