<svg width="25" height="25" viewBox="0 0 25 25" fill="none" xmlns="http://www.w3.org/2000/svg">
<path d="M22.2953 2.8861C22.0518 2.89678 21.8147 2.96456 21.6009 3.05016C21.3894 3.13519 20.1712 3.65511 18.3724 4.42419C16.5736 5.19327 14.2353 6.19478 11.9173 7.18786C7.28148 9.17404 2.72594 11.1283 2.72594 11.1283L2.75915 11.1156C2.75915 11.1156 2.4842 11.2075 2.20544 11.4017C2.06606 11.4988 1.91611 11.6242 1.79333 11.807C1.67055 11.9898 1.58079 12.2488 1.61462 12.5228C1.73343 13.4852 2.73083 13.7582 2.73083 13.7582L2.73473 13.7601L7.1859 15.2836C7.29939 15.6622 8.53596 19.7894 8.80797 20.6635C8.9582 21.1467 9.09881 21.4254 9.24547 21.6156C9.31887 21.7108 9.39578 21.7844 9.48082 21.8383C9.51461 21.8597 9.55015 21.8757 9.58531 21.89C9.58606 21.8904 9.58652 21.8897 9.58727 21.89C9.59159 21.8919 9.59565 21.8921 9.59996 21.8939L9.58824 21.891C9.59641 21.8943 9.60448 21.8999 9.61266 21.9027C9.62853 21.9083 9.63825 21.9081 9.65856 21.9125C10.1683 22.0905 10.5902 21.7601 10.5902 21.7601L10.6078 21.7465L13.3422 19.2103L17.7797 22.6703L17.8353 22.6957C18.612 23.0406 19.3145 22.8481 19.7035 22.5316C20.0925 22.2151 20.2455 21.807 20.2455 21.807L20.2621 21.764L23.5228 4.76892C23.6062 4.3887 23.6181 4.06005 23.5394 3.76306C23.4607 3.46608 23.2695 3.20791 23.0296 3.06482C22.7898 2.92173 22.5388 2.87541 22.2953 2.8861ZM22.3216 3.9027C22.4205 3.89812 22.4939 3.90942 22.517 3.92321C22.5401 3.93699 22.5504 3.93518 22.5726 4.01891C22.5948 4.10265 22.6068 4.27902 22.5463 4.55505L22.5443 4.56091L19.3021 21.4574C19.2944 21.4744 19.2269 21.6307 19.0726 21.7562C18.9153 21.8843 18.7402 21.9842 18.2758 21.7894L13.4232 18.0052L13.2865 17.8978L13.2836 17.9008L11.8324 16.8119L19.9877 7.21717C20.1157 7.06694 20.1434 6.85547 20.0583 6.67737C19.9733 6.49926 19.7914 6.38784 19.5941 6.39295C19.4997 6.3954 19.408 6.42452 19.3295 6.47694L7.52868 14.3441L3.07067 12.8178C3.07067 12.8178 2.62799 12.5714 2.60681 12.3998C2.60563 12.3903 2.60041 12.3989 2.62341 12.3646C2.64641 12.3304 2.70423 12.2726 2.77673 12.2221C2.92172 12.121 3.08727 12.0599 3.08727 12.0599L3.10387 12.0541L3.12047 12.0473C3.12047 12.0473 7.67625 10.0929 12.3119 8.10682C14.6297 7.11379 16.9676 6.11302 18.766 5.34413C20.5639 4.57544 21.863 4.02214 21.973 3.97792C22.0982 3.92777 22.2227 3.90728 22.3216 3.9027ZM16.9134 9.28942L10.7289 16.5658L10.7259 16.5687C10.7163 16.5803 10.7072 16.5924 10.6986 16.6048C10.6888 16.6184 10.6797 16.6324 10.6713 16.6468C10.6365 16.7058 10.6142 16.7713 10.6058 16.8392C10.6058 16.8405 10.6058 16.8418 10.6058 16.8431L9.80016 20.4662C9.78676 20.427 9.77738 20.4127 9.76305 20.3666V20.3656C9.50715 19.5434 8.34048 15.651 8.17906 15.1127L16.9134 9.28942ZM11.4271 17.7582L12.5384 18.5922L10.9056 20.1058L11.4271 17.7582Z" fill="black"/>
</svg>
